# xmcd
#
# Track frame offsets:
#	150
#	10733
#	23902
#	43480
#	60891
#	77833
#	91876
#	116671
#	129175
#	142591
#	156333
#	174495
#	194013
#	213824
#	228660
#	252460
#	267521
#	289016
#	300794
#	318081
#	339572
#
# Disc length: 4732 seconds
#
# Revision: 1
# Processed by: cddbd v1.5.2PL0 Copyright (c) Steve Scherf et al.
# Submitted via: audiograbber 1.83.01
#
DISCID=1b127a15
DTITLE=Diverse - BluesNews Collection 12
DYEAR=2017
DGENRE=Blues
TTITLE0=Klaus "Mojo" Kilian - That Ain't Your Business
TTITLE1=Mississippi Buddies - Garbage Man Blues
TTITLE2=City Blues Connection - Muddy Waters
TTITLE3=Alex Behning - Die Hand, die das Geld entgegennimmt
TTITLE4=Véronique Gayot - Shake You Up And Down
TTITLE5=Michael van Merwyk - The Well
TTITLE6=Schwarzbrenner - Blues vom kahlen Berg
TTITLE7=Blue Alley - The Train Song
TTITLE8=The Almost Three (feat. Rafael Cortés) - Men And Women
TTITLE9=Daria - Auf der Spur
TTITLE10=Silvia Brown - Don't Let The Sun Go Down On My Soul
TTITLE11=City Blues Connection - This Angel
TTITLE12=Honey Creek - Swamp Gas
TTITLE13=Acoustic Ramblers - Einen trink ich noch
TTITLE14=RE-IN Bluesband - Es wird nie mehr so sein
TTITLE15=Ulrich Ellison And Tribe - Messin' Around
TTITLE16=Joris Hering Blues Band - Unterwegs
TTITLE17=THEY Play The Blues - Drunk Enough
TTITLE18=Wolfgang "Blueswolf" Schuster und Band - Still Far Away
TTITLE19=Nobby Stiles Bluesband - Bremer Reihe
TTITLE20=Black Cat Blues - It Serves Me Right To Suffer
EXTD=
EXTT0=
EXTT1=
EXTT2=
EXTT3=
EXTT4=
EXTT5=
EXTT6=
EXTT7=
EXTT8=
EXTT9=
EXTT10=
EXTT11=
EXTT12=
EXTT13=
EXTT14=
EXTT15=
EXTT16=
EXTT17=
EXTT18=
EXTT19=
EXTT20=
PLAYORDER=
